<svg xmlns="http://www.w3.org/2000/svg" viewBox="0 0 760 480" width="760" height="480" role="img" aria-labelledby="title"><title id="title">ClientFlow illustrative workflow preview</title><defs><linearGradient id="bg" x2="1" y2="1"><stop stop-color="#102039"/><stop offset="1" stop-color="#0c1422"/></linearGradient><linearGradient id="blue" x2="1" y2="1"><stop stop-color="#1979e4"/><stop offset="1" stop-color="#2ba2ff"/></linearGradient><filter id="sh"><feDropShadow dx="0" dy="18" stdDeviation="22" flood-opacity=".3"/></filter></defs><rect x="0" y="0" width="760" height="480" rx="0" fill="url(#bg)" stroke="none"/><path d="M0 408L760 182.4" stroke="#2b629b" opacity=".09" stroke-width="2"/><circle cx="638.4" cy="48" r="235.6" fill="#0073e6" opacity=".06"/><rect x="38" y="34" width="684" height="50" rx="12" fill="#1a2940" stroke="#315072"/><circle cx="64" cy="59" r="7" fill="#3397ff"/><text x="85" y="65" fill="#eaf3ff" font-family="Arial, sans-serif" font-size="20" font-weight="600">ClientFlow / intake desk</text><text x="595" y="64" fill="#9db5d2" font-family="Arial, sans-serif" font-size="13" font-weight="500">3 ACTIVE CASES</text><text x="40" y="126" fill="#8fb8e4" font-family="Arial, sans-serif" font-size="15" font-weight="700">CLIENT PIPELINE</text><rect x="40" y="150" width="215" height="255" rx="16" fill="#17273d" stroke="#345573"/><rect x="56" y="169" width="183" height="28" rx="7" fill="#263b53" stroke="none"/><text x="65" y="188" fill="#a9c7e7" font-family="Arial, sans-serif" font-size="12" font-weight="600">New enquiry</text><circle cx="72" cy="241" r="18" fill="#216cb5"/><text x="104" y="240" fill="#eaf3ff" font-family="Arial, sans-serif" font-size="15" font-weight="600">Maya Carter</text><text x="104" y="260" fill="#9caeca" font-family="Arial, sans-serif" font-size="11" font-weight="500">Initial request received</text><rect x="58" y="291" width="179" height="8" rx="4" fill="#30455f" stroke="none"/><rect x="58" y="309" width="150" height="8" rx="4" fill="#30455f" stroke="none"/><rect x="58" y="346" width="176" height="38" rx="8" fill="#213956" stroke="none"/><text x="70" y="371" fill="#c7dff5" font-family="Arial, sans-serif" font-size="11" font-weight="600">Review next step</text><rect x="273" y="150" width="215" height="255" rx="16" fill="#17273d" stroke="#345573"/><rect x="289" y="169" width="183" height="28" rx="7" fill="#263b53" stroke="none"/><text x="298" y="188" fill="#a9c7e7" font-family="Arial, sans-serif" font-size="12" font-weight="600">Waiting on documents</text><circle cx="305" cy="241" r="18" fill="#415679"/><text x="337" y="240" fill="#eaf3ff" font-family="Arial, sans-serif" font-size="15" font-weight="600">Amara Brooks</text><text x="337" y="260" fill="#9caeca" font-family="Arial, sans-serif" font-size="11" font-weight="500">Two items outstanding</text><rect x="291" y="291" width="179" height="8" rx="4" fill="#30455f" stroke="none"/><rect x="291" y="309" width="150" height="8" rx="4" fill="#30455f" stroke="none"/><rect x="291" y="346" width="176" height="38" rx="8" fill="#213956" stroke="none"/><text x="303" y="371" fill="#c7dff5" font-family="Arial, sans-serif" font-size="11" font-weight="600">Review next step</text><rect x="506" y="150" width="215" height="255" rx="16" fill="#17273d" stroke="#345573"/><rect x="522" y="169" width="183" height="28" rx="7" fill="#145679" stroke="none"/><text x="531" y="188" fill="#bbecfa" font-family="Arial, sans-serif" font-size="12" font-weight="600">Ready for work</text><circle cx="538" cy="241" r="18" fill="#216cb5"/><text x="570" y="240" fill="#eaf3ff" font-family="Arial, sans-serif" font-size="15" font-weight="600">Noah Reed</text><text x="570" y="260" fill="#9caeca" font-family="Arial, sans-serif" font-size="11" font-weight="500">Checklist complete</text><rect x="524" y="291" width="179" height="8" rx="4" fill="#30455f" stroke="none"/><rect x="524" y="309" width="150" height="8" rx="4" fill="#30455f" stroke="none"/><rect x="524" y="346" width="176" height="38" rx="8" fill="#206fac" stroke="none"/><text x="536" y="371" fill="#c7dff5" font-family="Arial, sans-serif" font-size="11" font-weight="600">Open case</text></svg>
